<?xml version="1.0" encoding="utf-8"?>
<!-- Generator: Adobe Illustrator 21.0.2, SVG Export Plug-In . SVG Version: 6.00 Build 0)  -->
<svg version="1.1" id="圖層_1" xmlns="http://www.w3.org/2000/svg" xmlns:xlink="http://www.w3.org/1999/xlink" x="0px" y="0px"
	 viewBox="0 0 85 85" style="enable-background:new 0 0 85 85;" xml:space="preserve">
<style type="text/css">
	.st0{display:none;}
	.st1{display:inline;}
	.st2{fill:#FFFFFF;}
</style>
<g id="圖層_1_1_">
</g>
<g id="圖層_2" class="st0">
	<path class="st1" d="M42.1,79.7C21.5,79.7,5,63.1,5,42.5c0-20.7,17.2-37.4,37.9-37C63,5.9,79.6,22.6,79.1,43.4
		C78.7,63.5,62.2,79.8,42.1,79.7z"/>
</g>
<g id="圖層_3">
	<path class="st2" d="M57.7,44.9c0,9.2,0,18.4,0,27.5c0,2.4-1.9,4-4,4c-6.5,0-13.1,0-19.6,0c-1.1,0-2.2,0-3.3,0
		c-1.8-0.1-3.2-1.5-3.5-3.2c0-0.3,0-0.5,0-0.8c0-18.4,0-36.9,0-55.3c0-0.7,0.1-1.4,0.5-2c0.8-1.3,2-1.9,3.5-2c6.1,0,12.1,0,18.2,0
		c1.4,0,2.9,0,4.3,0c1.5,0,2.7,0.7,3.5,2c0.4,0.6,0.5,1.3,0.5,2c0,8.8,0,17.6,0,26.4C57.7,44,57.7,44.4,57.7,44.9z M56.4,44.2
		c0-7.9,0-15.8,0-23.6c0-0.1,0-0.2,0-0.3c0-0.2-0.1-0.4-0.3-0.5s-0.4-0.1-0.6-0.1c-8.6,0-17.2,0-25.8,0c-0.1,0-0.3,0-0.4,0
		s-0.2,0-0.3,0.1c-0.3,0.2-0.4,0.5-0.4,0.8c0,15.8,0,31.6,0,47.4c0,0.1,0,0.2,0,0.3c0,0.3,0.2,0.5,0.5,0.6c0.1,0,0.3,0,0.4,0
		c8.7,0,17.3,0,26,0c0.1,0,0.2,0,0.3,0c0.4,0,0.6-0.3,0.6-0.7c0-0.1,0-0.2,0-0.3C56.4,59.9,56.4,52,56.4,44.2z M45,72.7
		c0-1.4-1.1-2.5-2.5-2.5S40,71.3,40,72.6c0,1.4,1.1,2.5,2.5,2.5S45,74,45,72.7z M42.5,16c-0.7,0-1.3,0-2,0c-0.2,0-0.4,0-0.4,0.3
		c0,0.2,0.2,0.2,0.4,0.2c1.3,0,2.6,0,3.9,0c0.2,0,0.3,0,0.3-0.2s-0.2-0.2-0.3-0.2C43.8,16,43.1,16,42.5,16z M37.8,15.6
		c-0.4,0-0.7,0.3-0.7,0.7c0,0.4,0.3,0.7,0.7,0.7s0.7-0.3,0.7-0.7C38.5,15.9,38.1,15.6,37.8,15.6z"/>
</g>
</svg>
