<?xml version="1.0" encoding="utf-8"?>
<!-- Generator: Adobe Illustrator 21.0.2, SVG Export Plug-In . SVG Version: 6.00 Build 0)  -->
<svg version="1.1" id="圖層_1" xmlns="http://www.w3.org/2000/svg" xmlns:xlink="http://www.w3.org/1999/xlink" x="0px" y="0px"
	 viewBox="0 0 85 85" style="enable-background:new 0 0 85 85;" xml:space="preserve">
<style type="text/css">
	.st0{fill:#FFFFFF;}
</style>
<path class="st0" d="M42.8,79.6C22.2,79.6,5.7,63,5.7,42.4c0-20.7,17.2-37.4,37.9-37c20.2,0.4,36.8,17.1,36.3,37.9
	C79.5,63.3,63,79.7,42.8,79.6z M55.7,24.4c0-3.3,0-6.4,0-9.7c-2.3,0-4.5,0-6.7,0c-1.8,0-3.7,0-5.5,0.4c-3.8,0.7-6.5,2.8-7.6,6.6
	c-0.3,1.2-0.4,2.4-0.5,3.6c-0.1,2.6,0,5.1,0,7.9c-1.9,0-3.7,0-5.6,0c0,3.2,0,6.2,0,9.3c1.9,0,3.7,0,5.6,0c0,9.3,0,18.5,0,27.8
	c3.8,0,7.6,0,11.4,0c0-9.3,0-18.5,0-27.8c0.4,0,0.8,0,1.1,0c2,0,4,0,5.9,0c0.6,0,0.8-0.2,0.8-0.7c0.1-1.2,0.3-2.4,0.5-3.6
	c0.2-1.7,0.3-3.3,0.5-5.1c-3,0-5.8,0-8.7,0c0-2,0-3.9,0-5.7c0-1.9,1-2.9,2.9-2.9C51.9,24.4,53.7,24.4,55.7,24.4z"/>
</svg>
