<?xml version="1.0" encoding="utf-8"?>
<!-- Generator: Adobe Illustrator 21.0.2, SVG Export Plug-In . SVG Version: 6.00 Build 0)  -->
<svg version="1.1" id="圖層_3" xmlns="http://www.w3.org/2000/svg" xmlns:xlink="http://www.w3.org/1999/xlink" x="0px" y="0px"
	 viewBox="0 0 85 85" style="enable-background:new 0 0 85 85;" xml:space="preserve">
<style type="text/css">
	.st0{fill:#FFFFFF;}
</style>
<g>
	<path class="st0" d="M55.1,21H30c-5,0-9.1,4.1-9.1,9.1v25c0,5,4.1,9.1,9.1,9.1h25c5,0,9.1-4.1,9.1-9.1v-25C64.1,25.1,60,21,55.1,21
		z M42.5,58.6c-8.8,0-16-7.2-16-16s7.2-16,16-16s16,7.2,16,16S51.3,58.6,42.5,58.6z M58,29.7c-1.4,0-2.5-1.1-2.5-2.5
		s1.1-2.5,2.5-2.5s2.5,1.1,2.5,2.5S59.4,29.7,58,29.7z"/>
	<path class="st0" d="M42.5,29.8c-7,0-12.8,5.7-12.8,12.8c0,7,5.7,12.8,12.8,12.8c7,0,12.8-5.7,12.8-12.8
		C55.3,35.6,49.6,29.8,42.5,29.8z"/>
	<path class="st0" d="M43.3,5.5C22.6,5.1,5.5,21.8,5.4,42.5c0,20.6,16.5,37.2,37.1,37.2c20.2,0.1,36.7-16.2,37.1-36.3
		C80.1,22.6,63.5,5.9,43.3,5.5z M67.3,55.1c0,6.7-5.5,12.2-12.2,12.2H30c-6.7,0-12.2-5.5-12.2-12.2v-25c0-6.7,5.5-12.2,12.2-12.2h25
		c6.7,0,12.2,5.5,12.2,12.2v25H67.3z"/>
</g>
</svg>
