<?xml version="1.0" encoding="utf-8"?>
<!-- Generator: Adobe Illustrator 21.0.2, SVG Export Plug-In . SVG Version: 6.00 Build 0)  -->
<svg version="1.1" id="圖層_1" xmlns="http://www.w3.org/2000/svg" xmlns:xlink="http://www.w3.org/1999/xlink" x="0px" y="0px"
	 viewBox="0 0 204.1 48.6" style="enable-background:new 0 0 204.1 48.6;" xml:space="preserve">
<style type="text/css">
	.st0{fill:#FFFFFF;}
</style>
<title>logo_web-02</title>
<path class="st0" d="M33,26.9v6.5H6.2c-3.4,0.1-6.2-2.6-6.2-6V14.1c0.1-3.4,2.9-6.1,6.2-6H33v6H8.1v12.8L33,26.9L33,26.9z"/>
<path class="st0" d="M46.7,8.1H40v18.8c0.1,3.4,2.8,6.1,6.2,6h20c3.4,0.1,6.2-2.6,6.2-6V8.1h-6.1v17H46.7V8.1z"/>
<path class="st0" d="M181.8,32.9h6.7V14.1c-0.1-3.4-2.8-6.1-6.2-6h-20c-3.4-0.1-6.2,2.6-6.2,6v18.8h6.1v-17h19.6L181.8,32.9
	L181.8,32.9z"/>
<rect x="26.3" y="26.9" class="st0" width="6.7" height="21.8"/>
<rect x="156" y="8" class="st0" width="6.7" height="24.8"/>
<rect x="197.5" y="8" class="st0" width="6.7" height="24.8"/>
<rect x="197.5" y="0" class="st0" width="6.7" height="6.2"/>
<path class="st0" d="M117.4,26.9v6.5h26.8c3.4,0.1,6.2-2.6,6.2-6V14.1c-0.1-3.4-2.9-6.1-6.2-6h-26.8v6h24.9v12.8L117.4,26.9
	L117.4,26.9z"/>
<rect x="117.4" y="26.9" class="st0" width="6.7" height="21.8"/>
<path class="st0" d="M104.5,8.1H79.9v6.5h22.8v3.2H84.9c-3.4-0.1-6.1,2.6-6.2,6v3.6c0.1,3.4,2.8,6.1,6.2,6h25.9V14.1
	C110.7,10.7,107.9,8,104.5,8.1z M102.5,27.3H88.2c-1.1,0-1.9-0.9-1.9-1.9s0.9-1.9,1.9-1.9h14.2V27.3z"/>
</svg>
