<?xml version="1.0" encoding="utf-8"?>
<!-- Generator: Adobe Illustrator 21.0.2, SVG Export Plug-In . SVG Version: 6.00 Build 0)  -->
<svg version="1.1" id="圖層_1" xmlns="http://www.w3.org/2000/svg" xmlns:xlink="http://www.w3.org/1999/xlink" x="0px" y="0px"
	 viewBox="0 0 28.4 28.4" style="enable-background:new 0 0 28.4 28.4;" xml:space="preserve">
<style type="text/css">
	.st0{fill:#F4F4F4;}
</style>
<path class="st0" d="M10.7,15.3c0.2,0.2,0.4,0.4,0.6,0.6c2.4,2.4,4.8,4.7,7.1,7.1c0.5,0.5,0.5,0.8,0,1.3c-0.1,0.1-0.2,0.2-0.3,0.3
	c-0.4,0.4-0.8,0.3-1.1,0c-0.7-0.7-1.4-1.4-2.1-2.1c-2.2-2.2-4.4-4.4-6.6-6.6c-0.5-0.5-0.4-0.9,0-1.3c2.9-2.9,5.8-5.8,8.7-8.7
	c0.4-0.4,0.8-0.4,1.2,0c0.1,0.1,0.3,0.3,0.4,0.4c0.3,0.3,0.3,0.7,0,1c-0.1,0.1-0.3,0.3-0.4,0.4c-2.4,2.4-4.9,4.9-7.3,7.3
	C10.8,15.2,10.8,15.2,10.7,15.3z"/>
</svg>
