<?xml version="1.0" encoding="utf-8"?>
<!-- Generator: Adobe Illustrator 21.0.2, SVG Export Plug-In . SVG Version: 6.00 Build 0)  -->
<svg version="1.1" id="圖層_1" xmlns="http://www.w3.org/2000/svg" xmlns:xlink="http://www.w3.org/1999/xlink" x="0px" y="0px"
	 viewBox="0 0 85 85" style="enable-background:new 0 0 85 85;" xml:space="preserve">
<style type="text/css">
	.st0{display:none;}
	.st1{display:inline;}
	.st2{fill:#FFFFFF;}
</style>
<g id="圖層_1_1_">
</g>
<g id="圖層_2" class="st0">
	<path class="st1" d="M42.1,79.7C21.5,79.7,5,63.1,5,42.5c0-20.7,17.2-37.4,37.9-37C63,5.9,79.6,22.6,79.1,43.4
		C78.7,63.5,62.2,79.8,42.1,79.7z"/>
</g>
<g id="圖層_3">
	<g>
		<polygon class="st2" points="37.6,35.9 37.6,35.9 37.6,52.3 37.6,52.3 51.8,44.1 51.8,44.1 51.8,44.1 		"/>
		<path class="st2" d="M43.8,7C23.1,6.6,6,23.3,6,44c0,20.6,16.5,37.2,37.1,37.2C63.3,81.3,79.8,65,80.2,44.9
			C80.6,24.2,64,7.4,43.8,7z M64.5,62.1c-4.3,1.1-21.4,1.1-21.4,1.1s-17.1,0-21.4-1.1c-2.4-0.6-4.2-2.5-4.8-4.8
			c-1.1-4.3-1.1-13.2-1.1-13.2s0-8.9,1.1-13.2c0.6-2.4,2.5-4.2,4.8-4.8C26,25,43.1,25,43.1,25s17.1,0,21.4,1.1
			c2.4,0.6,4.2,2.5,4.8,4.8c1.1,4.3,1.1,13.2,1.1,13.2s0,8.9-1.1,13.2C68.7,59.6,66.8,61.5,64.5,62.1z"/>
	</g>
</g>
</svg>
